<svg viewBox="0 0 14 22" fill="none" xmlns="http://www.w3.org/2000/svg">
  <g>
    <mask id="mask0_5_3671" x="0" y="0"
      width="14" height="22">
      <path d="M13.5385 0H0V22H13.5385V0Z" fill="white" />
    </mask>
    <path
      d="M2.89476 5.66498C3.55387 5.66498 4.12986 5.79943 4.62269 6.06831C5.11553 6.33719 5.49557 6.7161 5.76277 7.20498C6.03593 7.68777 6.17249 8.24693 6.17249 8.88248C6.17249 9.51193 6.03593 10.0711 5.76277 10.56C5.49557 11.0489 5.11257 11.4278 4.61378 11.6966C4.12095 11.9655 3.54793 12.1 2.89476 12.1H0.552246V5.66498H2.89476ZM2.79678 10.7433C3.37276 10.7433 3.82107 10.5814 4.14172 10.2575C4.46237 9.9336 4.62269 9.47527 4.62269 8.88248C4.62269 8.28969 4.46237 7.82831 4.14172 7.49831C3.82107 7.16831 3.37276 7.00331 2.79678 7.00331H2.07532V10.7433H2.79678ZM12.6172 12.1H11.0941L8.54674 8.13081V12.1H7.02367V5.66498H8.54674L11.0941 9.65248V5.66498H12.6172V12.1Z"
      fill="white" />
    <path
      d="M4.71173 2.38332L6.68015 0.522491L8.64857 2.38332V4.35416L6.68015 2.48416L4.71173 4.35416V2.38332ZM12.0243 16.8798L1.89716 14.4232V12.9107L12.0243 15.3673V16.8798ZM8.64857 17.5502V19.521L6.68015 21.3818L4.71173 19.521V17.5502L6.68015 19.4202L8.64857 17.5502Z"
      fill="white" />
  </g>
</svg>