<svg
  width="42" height="25" viewBox="0 0 42 25" fill="none" xmlns="http://www.w3.org/2000/svg">
  <path
    d="M41.6898 23.7368C40.185 24.1193 39.2543 23.7535 38.4194 22.4998L32.4804 14.2832L31.6219 13.1455L24.6865 22.5271C23.8941 23.6558 23.0629 24.1466 21.5839 23.7473L30.465 11.8257L22.1967 1.057C23.6186 0.78056 24.6011 0.921106 25.4736 2.19471L31.6334 10.5136L37.8386 2.24001C38.6334 1.11129 39.4882 0.682518 40.9154 1.09826L37.7095 5.34878L33.3659 11.0044C32.8487 11.6507 32.9198 12.0931 33.3957 12.7171L41.6898 23.7368ZM0.332875 11.6265L1.05919 8.05329C3.03707 0.981916 11.1425 -1.95652 16.7324 2.41282C19.9991 4.98268 20.8111 8.61795 20.6494 12.6901H2.23568C1.95924 20.0199 7.23484 24.4435 13.9606 22.1867C16.3198 21.3943 17.7094 19.5467 18.405 17.2356C18.7581 16.0775 19.342 15.8963 20.4307 16.2273C19.875 19.118 18.621 21.5327 15.9707 23.044C12.0112 25.306 6.35899 24.5744 3.38611 21.4306C1.61486 19.6063 0.883271 17.2952 0.555019 14.8234C0.503206 14.4148 0.399891 14.0257 0.322327 13.6342C0.329152 12.9653 0.332875 12.2967 0.332875 11.6278V11.6265ZM2.26919 11.1354H18.9092C18.8006 5.83526 15.5004 2.07061 10.9899 2.03865C6.0388 1.99987 2.48357 5.67486 2.26888 11.1354H2.26919Z"
    fill="#fff"
  />
</svg>