<svg width="30" height="31" viewBox="0 0 30 31" fill="none" xmlns="http://www.w3.org/2000/svg">
<path d="M0 30.1893V0.189255H30V30.1893H0Z" fill="#FFD600"/>
<path d="M19.615 22.6451C20.1917 23.5818 20.8183 24.4793 22.1458 24.4793C23.2608 24.4793 23.8458 23.9251 23.8458 23.1584C23.8458 22.2409 23.2408 21.9151 22.0142 21.3809L21.3417 21.0943C19.4008 20.2709 18.11 19.2393 18.11 17.0601C18.11 15.0518 19.6475 13.5234 22.05 13.5234C23.7608 13.5234 24.99 14.1159 25.8767 15.6676L23.7817 17.0068C23.3208 16.1834 22.8225 15.8593 22.05 15.8593C21.2617 15.8593 20.7625 16.3568 20.7625 17.0068C20.7625 17.8101 21.2625 18.1351 22.4167 18.6326L23.0892 18.9193C25.3767 19.8934 26.6667 20.8884 26.6667 23.1251C26.6667 25.5351 24.7633 26.8559 22.2083 26.8559C19.7092 26.8559 18.29 25.6018 17.5 24.0493L19.615 22.6451ZM9.96001 22.7134C10.3817 23.4684 11.0225 24.0493 11.9442 24.0493C12.8258 24.0493 13.3333 23.7009 13.3333 22.3468V13.5226H16.1108V22.7734C16.1108 25.5793 14.4833 26.8559 12.1067 26.8559C9.95917 26.8559 8.40917 25.4009 7.77751 24.0493L9.96001 22.7134Z" fill="#000001"/>
</svg>
