<svg width="50" height="60" viewBox="0 0 50 60" fill="none" xmlns="http://www.w3.org/2000/svg">
<g clip-path="url(#clip0_10_38)">
<path d="M47.625 13.6029L27.3867 1.4649C26.6598 1.05047 25.8374 0.83252 25.0007 0.83252C24.1639 0.83252 23.3415 1.05047 22.6146 1.4649L2.37506 13.6016C1.64569 14.0485 1.04391 14.6761 0.627876 15.4235C0.211841 16.171 -0.00439244 17.0131 6.76229e-05 17.8685V42.1093C-0.00430821 42.9653 0.211927 43.8079 0.627923 44.556C1.04392 45.304 1.64564 45.9323 2.37506 46.3801L7.68234 49.5494L7.71229 49.5663C10.392 50.9374 11.418 50.9374 12.6068 50.9374C16.7917 50.9374 19.3919 48.2291 19.3919 43.8684V20.3646C19.3944 20.0712 19.2803 19.7887 19.0748 19.5793C18.8692 19.3699 18.589 19.2505 18.2956 19.2474H15.3815C15.0881 19.2505 14.8079 19.3699 14.6024 19.5793C14.3968 19.7887 14.2828 20.0712 14.2852 20.3646V43.8684C14.2958 44.2049 14.2192 44.5384 14.063 44.8366C13.9067 45.1348 13.676 45.3875 13.3933 45.5703C12.625 46.039 11.5092 45.94 10.25 45.2903L5.16412 42.2291C5.14465 42.2158 5.12876 42.198 5.11785 42.1771C5.10695 42.1562 5.10137 42.1329 5.10162 42.1093V18.2109C5.10245 18.1835 5.10987 18.1566 5.12323 18.1326C5.1366 18.1086 5.15553 18.0881 5.17844 18.0729L24.9492 5.96358C24.964 5.95624 24.9803 5.95242 24.9968 5.95242C25.0132 5.95242 25.0295 5.95624 25.0443 5.96358L44.8268 18.0729C44.8493 18.0893 44.8675 18.1109 44.88 18.1358C44.8924 18.1608 44.8988 18.1883 44.8984 18.2162V42.1093C44.8989 42.134 44.8939 42.1585 44.8838 42.181C44.8736 42.2035 44.8586 42.2235 44.8398 42.2395L25.0404 54.0429C25.0066 54.0546 24.9699 54.0546 24.9362 54.0429L19.8802 51.0403C19.7301 50.9422 19.5567 50.8856 19.3777 50.8762C19.1986 50.8668 19.0202 50.905 18.8607 50.9869L18.8164 51.013C17.4206 51.8398 17.0456 52.0546 15.7513 52.526C15.5404 52.6028 15.0443 52.7864 15.0013 53.2773C14.9584 53.7682 15.4297 54.1171 15.849 54.3606L22.6068 58.5103C23.3268 58.9416 24.1503 59.1698 24.9896 59.1705H25.0651C25.8835 59.1576 26.6841 58.93 27.3867 58.5103L47.625 46.3841C48.354 45.9348 48.9553 45.3057 49.3712 44.5571C49.7871 43.8086 50.0036 42.9657 49.9999 42.1093V17.8685C50.0041 17.0133 49.7877 16.1715 49.3717 15.4243C48.9556 14.6772 48.3541 14.0498 47.625 13.6029Z" fill="white"/>
<path d="M31.7553 38.0794C26.8998 38.0794 25.8646 36.7227 25.5574 34.5326C25.5228 34.2718 25.3957 34.0321 25.1992 33.8572C25.0028 33.6823 24.7501 33.5837 24.487 33.5794H21.9089C21.6184 33.5856 21.3421 33.7066 21.1405 33.916C20.9389 34.1253 20.8285 34.406 20.8334 34.6966C20.8334 36.595 21.5001 42.7916 31.7605 42.7916C34.9349 42.7916 37.5756 42.0495 39.3946 40.6445C41.2136 39.2396 42.1875 37.1953 42.1875 34.7591C42.1875 29.8698 38.9974 28.5313 32.7149 27.6563C26.3282 26.7682 26.3282 26.3164 26.3282 25.3268C26.3282 24.6146 26.3282 22.9466 30.9454 22.9466C34.2305 22.9466 35.9896 23.362 36.5521 25.5508C36.6019 25.7935 36.7331 26.0118 36.924 26.1698C37.1148 26.3277 37.3539 26.4157 37.6016 26.4193H40.1888C40.3413 26.4178 40.4917 26.3838 40.63 26.3196C40.7683 26.2554 40.8914 26.1624 40.9909 26.0469C41.1898 25.8147 41.289 25.5133 41.267 25.2084C40.9323 20.5795 37.5482 18.2318 30.9493 18.2318C24.9519 18.2318 21.3725 20.9336 21.3725 25.4584C21.3725 30.4193 25.0821 31.8216 30.655 32.4024C37.1654 33.0755 37.1654 34.0573 37.1654 34.9245C37.1693 36.276 36.6081 38.0794 31.7553 38.0794Z" fill="white"/>
</g>
<defs>
<clipPath id="clip0_10_38">
<rect width="50" height="59.5237" fill="white" transform="translate(0 0.238159)"/>
</clipPath>
</defs>
</svg>
