<svg width="34" height="36" viewBox="0 0 34 36" fill="none" xmlns="http://www.w3.org/2000/svg">
<path fill-rule="evenodd" clip-rule="evenodd" d="M33.9771 22.0492C33.8479 21.2112 33.144 20.6624 32.3252 20.6253C32.0288 20.6118 31.7279 20.6429 31.4323 20.6805C31.0754 20.7259 30.7227 20.8063 30.3666 20.8594C30.1204 20.8962 29.8709 20.9131 29.625 20.9384L29.619 20.9065C30.0779 20.0398 30.5561 19.1825 30.9903 18.3034C31.3232 17.6291 31.6081 16.9303 31.9025 16.2373C32.3895 15.0892 32.7787 13.9054 33.1009 12.7023C33.4096 11.5504 33.6739 10.3858 33.7569 9.19083C33.7902 8.71352 33.8131 8.2342 33.8106 7.75631C33.8083 7.37521 33.7672 6.99353 33.729 6.61358C33.6859 6.1782 33.5544 5.7655 33.3723 5.36832C33.1322 4.84505 32.76 4.4157 32.3683 4.00789C32.0547 3.68136 31.7098 3.38383 31.3677 3.08658C30.8801 2.6624 30.3318 2.3238 29.7623 2.02312C29.1153 1.68136 28.4352 1.41398 27.7261 1.23334C27.2974 1.12392 26.8588 1.04265 26.4246 0.955914C26.2684 0.924323 26.1118 0.859131 25.9556 0.859131H23.0145C22.9082 0.859131 22.8028 0.913984 22.6957 0.926046C21.9915 1.00445 21.2956 1.13713 20.6199 1.34649C20.3672 1.4249 20.1362 1.3755 19.8962 1.35339C19.7121 1.33644 19.5311 1.28705 19.347 1.27786C18.6457 1.24282 17.9435 1.19141 17.2425 1.19888C16.5708 1.20577 15.9059 1.31634 15.2557 1.501C14.7115 1.65551 14.179 1.8442 13.6914 2.13024C13.4826 2.25258 13.3172 2.22961 13.1012 2.16729C12.3755 1.95792 11.6446 1.7612 10.9074 1.59606C10.4479 1.49325 9.97543 1.44213 9.50616 1.39302C9.05642 1.34621 8.60323 1.31806 8.15119 1.30858C7.70949 1.29911 7.26463 1.29939 6.82494 1.33845C6.12449 1.40077 5.43724 1.54322 4.76923 1.77297C4.02742 2.028 3.34735 2.39761 2.7342 2.88297C2.11185 3.3755 1.61271 3.97688 1.21122 4.66355C0.788189 5.38813 0.498126 6.16384 0.31777 6.9786C0.220125 7.42001 0.158379 7.87377 0.0914631 8.32208C0.0704981 8.46165 0.301687 8.60123 0.0144958 8.74023V10.6914C0.301687 10.8212 0.0742315 10.9507 0.0908886 11.0808C0.130808 11.3936 0.166133 11.7089 0.218976 12.0194C0.302548 12.5108 0.401629 13.0007 0.502721 13.4889C0.643731 14.171 0.790486 14.8525 0.946718 15.5311C1.06045 16.0251 1.18997 16.5162 1.32552 17.0047C1.53259 17.7508 1.73649 18.4984 1.97055 19.2362C2.18796 19.9217 2.43695 20.5975 2.68394 21.2732C3.02598 22.208 3.43552 23.1127 3.92661 23.9797C4.35137 24.7304 4.83672 25.4335 5.48778 26.0119C5.91685 26.393 6.39444 26.6859 6.95045 26.8324C7.38726 26.9473 7.83126 26.9611 8.27842 26.8694C8.7968 26.7632 9.25573 26.54 9.66383 26.2057C9.71064 26.1673 9.76205 26.138 9.81747 26.2086C10.0286 26.476 10.3112 26.6543 10.6067 26.8086C11.4042 27.2244 12.2732 27.3491 13.1561 27.3999C13.3697 27.4122 13.5857 27.3815 13.8011 27.3755C14.2207 27.364 14.6285 27.2821 15.0297 27.1661C15.2399 27.1052 15.4453 27.028 15.6592 26.9559C15.6704 27.1836 15.6848 27.403 15.6914 27.6225L15.7213 28.8189C15.7267 29.001 15.7339 29.1836 15.7508 29.3648C15.7942 29.8321 15.8367 30.2997 15.8924 30.7655C15.9312 31.0866 15.9714 31.4102 16.0469 31.7235C16.1989 32.3562 16.4048 32.9723 16.6667 33.5696C16.9237 34.1558 17.2933 34.6506 17.7867 35.0587C18.4243 35.586 19.1716 35.8108 19.9786 35.8525C20.3123 35.87 20.6555 35.8536 20.984 35.7939C21.5047 35.6994 22.0242 35.5805 22.5311 35.4277C23.5624 35.1164 24.4539 34.5788 25.1199 33.71C25.499 33.2149 25.8103 32.6793 26.0102 32.088C26.175 31.5995 26.3304 31.1061 26.4539 30.6061C26.5515 30.2121 26.5998 29.8057 26.6592 29.4033C26.6986 29.1371 26.7221 28.8683 26.7468 28.6001C26.787 28.1644 26.8281 27.729 26.8571 27.2925C26.8772 26.9886 26.8763 26.6833 26.8884 26.3789C26.8921 26.2862 26.9071 26.194 26.9157 26.1015C26.9237 26.0159 26.9668 25.9863 27.0541 25.9878C27.3617 25.9924 27.6698 26.0004 27.9766 25.9866C28.3203 25.9711 28.6673 25.9565 29.0056 25.8996C29.4872 25.8189 29.9665 25.7169 30.4387 25.5932C30.9967 25.4473 31.5084 25.1859 32.001 24.8881C32.5748 24.5415 33.0978 24.1348 33.5222 23.611C33.8913 23.1541 34.0662 22.6259 33.9771 22.0492ZM32.9972 22.3313C32.9783 22.594 32.858 22.8192 32.6833 23.0116C31.8594 23.92 30.8258 24.4711 29.6434 24.7425C29.1943 24.8453 28.7307 24.8987 28.2709 24.9412C27.8795 24.9774 27.4823 24.9835 27.0894 24.9691C26.8005 24.9582 26.5139 24.8921 26.2187 24.8496C26.1891 25.1196 26.1609 25.4007 26.1268 25.6813L25.9892 26.7569C25.9476 27.0978 25.9151 27.4398 25.8723 27.7804C25.8304 28.111 25.7781 28.4404 25.7342 28.7709C25.6931 29.0788 25.663 29.3881 25.6173 29.6954C25.5469 30.1664 25.4797 30.6385 25.3878 31.1058C25.2775 31.6644 25.1084 32.2055 24.8324 32.7092C24.4958 33.3241 24.0185 33.7925 23.4111 34.1394C22.785 34.4972 22.1006 34.6833 21.4068 34.839C20.9157 34.9493 20.4097 34.9674 19.9122 34.9226C19.0495 34.8445 18.3132 34.4754 17.7566 33.8065C17.2253 33.1681 16.8657 32.4364 16.7371 31.6081C16.6756 31.2144 16.6314 30.8172 16.596 30.4203C16.557 29.9789 16.5303 29.536 16.5102 29.0935C16.4846 28.5314 16.4659 27.9694 16.4536 27.4074C16.4384 26.7164 16.4335 26.0254 16.4237 25.3344L16.422 25.308C16.0705 25.5188 15.725 25.7497 15.3585 25.9398C14.9295 26.1627 14.4634 26.2919 13.9806 26.3284C13.6021 26.3571 13.2187 26.3832 12.8419 26.3531C12.2241 26.3034 11.607 26.2066 11.0538 25.9025C10.8295 25.779 10.5955 25.6288 10.441 25.4315C10.0705 24.9588 10.248 24.3614 10.8066 24.0739C11.1925 23.8749 11.6139 23.7919 12.0323 23.6951C12.3959 23.611 12.7577 23.5153 13.1124 23.3996C13.4634 23.2847 13.6848 23.0001 13.9033 22.721L14.2497 22.2755C14.1052 22.2603 13.9691 22.2448 13.833 22.2322C13.4197 22.1931 13.0254 22.0794 12.6483 21.9122C12.3255 21.7695 12.3206 21.754 12.084 22.0107C11.6888 22.4398 11.3046 22.8789 10.9174 23.3152C10.6325 23.636 10.3494 23.9588 10.0659 24.2804C9.78502 24.5986 9.52196 24.9349 9.21954 25.231C8.77038 25.6707 8.22902 25.9352 7.58313 25.9053C7.16871 25.8864 6.78933 25.7411 6.44815 25.5036C5.74396 25.013 5.26952 24.3269 4.83758 23.6064C4.28417 22.6831 3.85941 21.6994 3.49583 20.6888C3.24425 19.9904 2.99152 19.2913 2.77182 18.5828C2.53316 17.8129 2.3238 17.0332 2.11788 16.2537C1.96223 15.6656 1.82409 15.0725 1.69227 14.4783C1.54264 13.8025 1.39876 13.1256 1.27182 12.4453C1.18624 11.9861 1.13655 11.5202 1.06734 11.0579C0.974001 10.4347 0.95677 9.80571 0.990658 9.17992C1.02081 8.61616 1.1018 8.05384 1.18221 7.49382C1.29364 6.71898 1.54896 5.98779 1.91628 5.29738C2.14115 4.87435 2.4203 4.4898 2.7431 4.13253C3.27297 3.54609 3.91426 3.1222 4.62765 2.80399C5.12621 2.5817 5.65292 2.44787 6.18968 2.34333C6.98635 2.18825 7.79019 2.19428 8.59433 2.21094C8.94585 2.21812 9.29594 2.28216 9.64717 2.31691C10.4033 2.39216 11.1446 2.55126 11.8763 2.7477C12.4097 2.89072 12.9321 3.07596 13.4611 3.23679C13.5142 3.25287 13.592 3.25143 13.6354 3.223C14.3522 2.75517 15.1357 2.44644 15.9688 2.26981C16.285 2.2029 16.6113 2.1736 16.9346 2.15293C17.3278 2.12794 17.7241 2.10497 18.1164 2.12765C18.588 2.15465 19.0573 2.22415 19.526 2.28848C19.7534 2.3195 19.9754 2.39847 20.2035 2.42001C20.3126 2.43035 20.4283 2.35051 20.5438 2.32381C21.1322 2.18796 21.7181 2.03661 22.3117 1.9292C22.7537 1.84937 23.2052 1.81174 23.6546 1.7859C24.1558 1.75718 24.6607 1.73621 25.1615 1.76034C25.7948 1.79078 26.4234 1.88096 27.0441 2.02541C27.8129 2.20433 28.5504 2.46424 29.2514 2.82495C29.7752 3.09434 30.2732 3.4068 30.7215 3.79106C31.0153 4.04322 31.316 4.29221 31.5814 4.57309C31.9088 4.91944 32.2428 5.26608 32.4481 5.70979C32.6026 6.04436 32.7129 6.39072 32.7434 6.75717C32.7813 7.21266 32.8272 7.66987 32.8229 8.12592C32.8189 8.56217 32.7594 8.99812 32.7172 9.43322C32.6213 10.4252 32.4056 11.3956 32.1437 12.3531C31.9272 13.144 31.6742 13.9263 31.4002 14.6994C31.1477 15.412 30.8565 16.1116 30.5621 16.8083C30.3447 17.3235 30.1107 17.8333 29.8562 18.3313C29.3746 19.275 28.8737 20.2089 28.2945 21.0978C28.1945 21.2514 28.0998 21.4088 28.0021 21.5656C28.2549 21.7362 28.5412 21.7962 28.8295 21.8272C29.1038 21.8571 29.3835 21.8749 29.6575 21.8545C30.096 21.8221 30.5331 21.7595 30.9691 21.6983C31.401 21.638 31.8244 21.5151 32.2678 21.5475C32.7106 21.5797 33.0274 21.9163 32.9972 22.3313ZM26.6753 21.3683C26.4872 21.1253 26.2953 20.8852 26.1113 20.6394C25.8223 20.2534 25.6147 19.8224 25.4062 19.3893C25.2086 18.9789 24.9662 18.5903 24.758 18.1845C24.3947 17.4766 24.0248 16.7709 23.6902 16.0492C23.2695 15.1426 22.9378 14.2037 22.8333 13.1994C22.789 12.7744 22.7778 12.3499 22.8637 11.9289C23.0013 11.2566 23.3525 10.7307 23.943 10.37C24.4906 10.0355 25.1009 9.92747 25.7261 9.89359C26.1141 9.87262 26.5038 9.88985 26.9065 9.88985L26.893 9.82179C26.6426 9.29824 26.4085 8.76579 26.1345 8.25459C25.748 7.53316 25.2534 6.88268 24.7026 6.27957C24.2945 5.83299 23.8525 5.41858 23.3683 5.05241C22.8921 4.69198 22.3904 4.37004 21.8551 4.10669C21.2167 3.79279 20.5518 3.55011 19.8542 3.39531C19.1839 3.24655 18.5093 3.15551 17.8218 3.14804C17.2353 3.14173 16.6526 3.16815 16.0814 3.30054C15.2193 3.50014 14.4306 3.85511 13.7445 4.43006C13.3614 4.75114 13.0271 5.11157 12.7345 5.51277C12.391 5.98463 12.1139 6.49411 11.8769 7.02828C11.5518 7.76119 11.3287 8.52397 11.1762 9.308C11.0998 9.69887 11.04 10.0932 10.9792 10.4872C10.9579 10.6251 10.9562 10.7661 10.9438 10.924C11.0498 10.8689 11.1262 10.8264 11.2043 10.7885L11.4585 10.6745C12.318 10.2813 13.2086 10.0283 14.1658 10.0573C14.5725 10.0696 14.9616 10.15 15.3232 10.3281C16.0168 10.6701 16.4226 11.2517 16.5989 11.9878C16.7207 12.4958 16.804 13.0139 16.885 13.5306C16.9484 13.9341 17.0133 14.3419 17.0208 14.7488C17.0314 15.3436 17.0013 15.9395 16.9688 16.534C16.9412 17.0406 16.8356 17.5392 16.6587 18.0119C16.337 18.8715 15.9786 19.717 15.6437 20.5716C15.5332 20.8539 15.4481 21.1463 15.3436 21.4568C15.505 21.4568 15.636 21.4556 15.7669 21.4573C15.818 21.4582 15.8703 21.4596 15.9197 21.4714C16.3045 21.5622 16.6383 21.7365 16.912 22.0326C17.277 22.4266 17.4685 22.8864 17.4783 23.4186C17.4838 23.7135 17.4527 24.0093 17.4542 24.3043C17.4602 25.6788 17.4705 27.0532 17.482 28.4275C17.484 28.652 17.4952 28.8769 17.5113 29.1012C17.5449 29.5708 17.5788 30.0406 17.6248 30.509C17.6569 30.8413 17.7017 31.173 17.7543 31.503C17.8287 31.9705 18.0415 32.3867 18.283 32.7844C18.4909 33.1265 18.7612 33.4171 19.1173 33.6176C19.7224 33.9582 20.374 33.9866 21.0309 33.8611C21.4746 33.7764 21.9102 33.6403 22.341 33.4998C22.7658 33.3617 23.1495 33.1354 23.4717 32.8238C23.7735 32.5311 23.9878 32.1744 24.1322 31.7807C24.4125 31.0171 24.4998 30.2129 24.6159 29.4151C24.6592 29.1164 24.6968 28.8169 24.7365 28.5176C24.7816 28.177 24.8272 27.8367 24.8709 27.4964C24.903 27.2428 24.9323 26.9886 24.9634 26.735C25.0076 26.3709 25.0544 26.007 25.0966 25.6426C25.1291 25.3608 25.1566 25.0779 25.1854 24.7956C25.2224 24.4349 25.2623 24.0742 25.2942 23.7129C25.3189 23.4387 25.3088 23.1595 25.3574 22.8904C25.4467 22.397 25.6799 21.9771 26.1173 21.7058C26.3002 21.5923 26.5067 21.5176 26.7098 21.4217L26.6753 21.3683ZM10.134 19.343C9.91541 18.8255 9.78416 18.2862 9.7451 17.7284C9.70834 17.2043 9.77066 16.6822 9.82437 16.1604C9.87664 15.6549 9.92 15.1472 9.93522 14.6394C9.9605 13.8048 9.90421 12.9714 9.86429 12.1374C9.84016 11.6409 9.89789 11.1383 9.94212 10.6406C9.98204 10.1923 10.0317 9.74281 10.1164 9.30111C10.2586 8.55987 10.4473 7.82926 10.7155 7.12104C10.9703 6.44959 11.2629 5.79566 11.6762 5.20692C11.9593 4.80312 12.2807 4.42576 12.5894 4.03116L12.4978 3.9987C11.4932 3.67963 10.4723 3.43035 9.4223 3.32151C8.92575 3.2701 8.42747 3.23994 7.92948 3.21036C7.7767 3.20117 7.62161 3.22185 7.46825 3.2365C7.08859 3.27268 6.70432 3.28704 6.33069 3.35827C5.69485 3.47917 5.08485 3.68251 4.51995 4.01364C4.01277 4.31088 3.58687 4.69514 3.23017 5.15608C2.83615 5.66499 2.57107 6.24052 2.38066 6.85424C2.15579 7.57825 2.04867 8.32323 2.01966 9.07509C1.99439 9.73419 1.98175 10.397 2.09548 11.0536C2.1802 11.5423 2.23678 12.0363 2.33012 12.5231C2.45734 13.1868 2.59376 13.8491 2.75143 14.5059C2.97687 15.4461 3.20203 16.3878 3.46912 17.3166C3.72472 18.2066 4.01306 19.0886 4.32552 19.9599C4.58112 20.671 4.87664 21.3689 5.18796 22.0576C5.39071 22.5062 5.63626 22.9378 5.89358 23.358C6.16728 23.804 6.47859 24.2273 6.90105 24.551C7.43408 24.9596 7.84677 25.0231 8.38841 24.5748C8.62046 24.3827 8.81661 24.1454 9.01851 23.9194C9.3393 23.5604 9.64889 23.1917 9.96825 22.8315C10.3749 22.3726 10.7867 21.9186 11.1954 21.4619C11.2819 21.3654 11.3649 21.2661 11.449 21.1684L11.31 21.0464C10.802 20.5584 10.4085 19.9927 10.134 19.343ZM25.5527 5.68164C25.8847 6.07107 26.206 6.47199 26.503 6.88899C27.0774 7.69571 27.5363 8.56676 27.8743 9.4987C28.024 9.90938 28.1434 10.3241 28.09 10.7735C28.053 11.0883 28.0561 11.4077 28.0283 11.7241C28.005 11.9875 27.9634 12.2494 27.9292 12.5119C27.8781 12.9077 27.804 13.3023 27.7818 13.6997C27.7609 14.078 27.7827 14.4602 27.8065 14.8393C27.8307 15.2244 27.8827 15.6078 27.918 15.9924C27.9579 16.4283 28.0116 16.8643 28.024 17.3011C28.034 17.6598 28.0021 18.0208 27.9708 18.3789C27.9335 18.8103 27.8241 19.2279 27.6609 19.6285C27.5464 19.9105 27.4094 20.1839 27.2798 20.4662L27.3318 20.5214L27.4108 20.5825L27.4903 20.4401C28.1621 19.3809 28.7597 18.281 29.2773 17.1394C29.6101 16.4042 29.922 15.6587 30.2213 14.9091C30.6876 13.7419 31.0567 12.5421 31.3422 11.3183C31.4702 10.7689 31.5682 10.2112 31.6552 9.65349C31.723 9.21754 31.7796 8.77641 31.7922 8.33644C31.8057 7.86975 31.7798 7.39933 31.7368 6.93379C31.7046 6.58227 31.6179 6.22845 31.3976 5.9427C31.0435 5.48262 30.6612 5.04264 30.1911 4.69457C29.7953 4.40134 29.401 4.10066 28.9763 3.85396C28.3028 3.46338 27.5739 3.20318 26.8123 3.02599C26.069 2.85281 25.316 2.77814 24.5581 2.76235C24.1113 2.75287 23.6624 2.80083 23.2164 2.84276C22.8123 2.88067 22.4108 2.94529 22.0039 2.9987C22.4404 3.24425 22.8709 3.46252 23.277 3.71984C24.1308 4.26062 24.8959 4.9114 25.5527 5.68164ZM14.4599 20.8229C14.7359 19.9404 15.1118 19.0978 15.476 18.25C15.7712 17.5624 15.9326 16.8382 15.9863 16.0943C16.013 15.7276 16.0056 15.3562 15.9875 14.9884C15.9671 14.5797 15.9344 14.1699 15.8749 13.7652C15.7985 13.248 15.7115 12.7305 15.5892 12.2227C15.4565 11.6733 15.1219 11.2908 14.5487 11.1498C14.1994 11.0639 13.8525 11.0673 13.4996 11.123C12.6374 11.2589 11.8482 11.5765 11.113 12.0418C10.9651 12.1354 10.8838 12.2109 10.9094 12.4232C10.9634 12.8726 10.9751 13.3293 10.9731 13.783C10.9703 14.4252 10.943 15.0673 10.9186 15.7092C10.9105 15.9183 10.8804 16.1262 10.858 16.3344C10.8235 16.6532 10.7572 16.9717 10.7592 17.2899C10.7612 17.6179 10.7948 17.9536 10.8743 18.2712C11.1271 19.2784 11.6624 20.1026 12.5398 20.6842C13.0794 21.0418 13.6765 21.2221 14.3318 21.2563C14.3763 21.1058 14.416 20.9636 14.4599 20.8229ZM13.4301 12.1822C13.3146 11.9398 13.3807 11.7391 13.6483 11.646C13.7135 11.623 13.7807 11.5986 13.8485 11.592C13.9415 11.5828 14.0363 11.5897 14.1305 11.5897C14.47 11.5915 14.7965 11.6388 15.0768 11.8548C15.2566 11.9932 15.3048 12.177 15.1885 12.3657C15.0234 12.6334 14.7715 12.7678 14.4622 12.7936C13.9749 12.8341 13.6328 12.607 13.4301 12.1822ZM26.9395 12.0938C26.9786 11.771 27.0099 11.4473 27.0498 11.1245C27.0659 10.9947 26.9975 10.9596 26.8887 10.9565C26.5464 10.947 26.204 10.9349 25.8617 10.9286C25.4757 10.9217 25.1001 10.9838 24.7428 11.1305C24.3465 11.2936 24.0446 11.555 23.9214 11.9863C23.8295 12.308 23.8048 12.6294 23.8373 12.9657C23.8867 13.4783 24.0004 13.9757 24.1799 14.4522C24.4194 15.09 24.6701 15.7276 24.9697 16.3387C25.3755 17.1661 25.8347 17.9671 26.2658 18.7819C26.3809 18.9993 26.4777 19.2261 26.5978 19.48C26.8491 18.9479 26.9717 18.4151 26.9858 17.8654C26.9975 17.4031 26.9605 16.9387 26.9335 16.476C26.9165 16.1928 26.8766 15.9114 26.8491 15.6288C26.8106 15.2351 26.7523 14.8416 26.7434 14.447C26.7345 14.0458 26.7629 13.6423 26.7974 13.2417C26.8298 12.8574 26.8933 12.4763 26.9395 12.0938ZM26.1673 11.783C26.04 12.1342 25.7681 12.3324 25.4154 12.3907C25.0866 12.4447 24.7985 12.3232 24.5843 12.061C24.4318 11.8743 24.4901 11.6532 24.7187 11.5271C24.9812 11.3818 25.2698 11.345 25.6101 11.3229C25.7026 11.3399 25.8419 11.354 25.9743 11.3919C26.1664 11.4461 26.2373 11.5906 26.1673 11.783ZM15.9944 22.5986C15.8063 22.445 15.5576 22.4361 15.3786 22.6047C15.1566 22.8143 14.9614 23.0541 14.7661 23.2905C14.5406 23.5636 14.3292 23.8476 14.0383 24.0593C13.615 24.3669 13.1216 24.4944 12.6256 24.615C12.2313 24.7109 11.8353 24.7999 11.4398 24.8921L11.4349 24.9433C11.5524 24.9975 11.6661 25.0653 11.7885 25.1041C12.3916 25.2951 13.005 25.3901 13.6423 25.3361C14.1024 25.2971 14.5406 25.1968 14.9559 24.9998C15.5274 24.729 15.9671 24.2999 16.341 23.8008C16.4036 23.7175 16.4321 23.5943 16.4395 23.4869C16.4651 23.1075 16.2724 22.8255 15.9944 22.5986ZM30.8568 22.7497C30.3715 22.8017 29.8855 22.8568 29.3987 22.8847C29.1638 22.8982 28.9254 22.8534 28.6882 22.8341C28.2905 22.802 27.9022 22.7135 27.5659 22.501C27.3712 22.3784 27.2095 22.3646 27.0027 22.4341C26.7075 22.5334 26.4665 22.6845 26.3953 23.0044C26.3468 23.2207 26.3292 23.4447 26.3097 23.6661C26.306 23.7052 26.3548 23.777 26.3921 23.7867C26.6199 23.8468 26.8488 23.9177 27.0817 23.9387C27.3677 23.9645 27.6589 23.9562 27.947 23.9418C28.258 23.9263 28.5711 23.9062 28.8775 23.8545C29.5998 23.7333 30.2985 23.5357 30.9191 23.1262C31.1428 22.9783 31.3646 22.8272 31.5868 22.6776L31.5685 22.646C31.3312 22.6813 31.0952 22.7244 30.8568 22.7497Z" fill="#336791"/>
</svg>
