<svg width="30" height="27" viewBox="0 0 30 27" fill="none" xmlns="http://www.w3.org/2000/svg">
<path d="M15.0053 16.276C16.4858 16.276 17.686 15.073 17.686 13.589C17.686 12.105 16.4858 10.902 15.0053 10.902C13.5249 10.902 12.3247 12.105 12.3247 13.589C12.3247 15.073 13.5249 16.276 15.0053 16.276Z" fill="#00D8FF"/>
<path d="M8.9231 26.9811C8.37842 26.9811 7.89782 26.8634 7.49199 26.6278C5.95941 25.7393 5.42541 23.1808 6.07155 19.7819C6.60021 16.9932 7.89248 13.7175 9.71342 10.5541C11.5023 7.44964 13.649 4.71984 15.769 2.87321C17.0078 1.79199 18.2627 0.999814 19.3948 0.582315C20.6283 0.127348 21.6963 0.127348 22.476 0.576962C24.0726 1.4976 24.6013 4.32375 23.8537 7.94208C23.325 10.5113 22.0648 13.6104 20.3026 16.6774C18.4229 19.9425 16.3937 22.576 14.434 24.2941C13.163 25.4075 11.8547 26.2211 10.6586 26.6439C10.0338 26.8687 9.44642 26.9811 8.9231 26.9811ZM10.2634 10.8753L10.8188 11.1964C9.09398 14.1939 7.81772 17.4107 7.32645 20.0228C6.73371 23.154 7.30508 25.0381 8.12744 25.5145C8.33036 25.6323 8.59736 25.6965 8.9231 25.6965C9.98576 25.6965 11.6572 25.0221 13.5902 23.3307C15.4432 21.7089 17.3816 19.1824 19.1919 16.0405C20.89 13.0912 22.0968 10.1259 22.5988 7.69051C23.2983 4.28093 22.6949 2.19343 21.8352 1.69565C21.3973 1.44408 20.6871 1.47619 19.8327 1.79199C18.8448 2.15597 17.7287 2.86786 16.6073 3.84737C14.5942 5.60301 12.5383 8.21506 10.8188 11.2018L10.2634 10.8753Z" fill="#00D8FF"/>
<path d="M21.0876 26.9972C19.6351 26.9972 17.7928 26.1194 15.8704 24.4601C13.7237 22.6081 11.5397 19.8515 9.71342 16.6882C7.91919 13.5837 6.63759 10.3561 6.09826 7.58881C5.7832 5.97234 5.72446 4.48968 5.92738 3.29606C6.15166 1.99539 6.68031 1.0694 7.46529 0.61443C9.0566 -0.311562 11.764 0.641193 14.5194 3.09802C16.4738 4.8376 18.5244 7.48176 20.2919 10.5434C22.1769 13.8085 23.4425 16.8862 23.9445 19.4447C24.2702 21.104 24.3236 22.6455 24.094 23.898C23.8483 25.2308 23.293 26.1782 22.492 26.6439C22.0915 26.8794 21.6162 26.9972 21.0876 26.9972ZM10.8241 16.0458C12.5543 19.0433 14.701 21.757 16.7088 23.4859C19.1171 25.5627 21.0288 26.0123 21.8565 25.5306C22.7163 25.0328 23.3464 22.9935 22.6949 19.6963C22.2143 17.2769 21.0021 14.333 19.1865 11.1911C17.4831 8.24182 15.5233 5.71006 13.6703 4.06148C11.0751 1.74917 8.97116 1.22997 8.11143 1.72776C7.67355 1.97933 7.34781 2.61629 7.19295 3.51552C7.01673 4.55391 7.07013 5.88134 7.35849 7.34259C7.87113 9.9707 9.09932 13.0591 10.8241 16.0458Z" fill="#00D8FF"/>
<path d="M15.0053 19.7445C11.2407 19.7445 7.95123 19.3002 5.4895 18.4545C3.89284 17.9085 2.53649 17.1806 1.56995 16.3509C0.544678 15.4731 0 14.515 0 13.589C0 11.812 1.94375 10.0724 5.20648 8.93765C7.87647 8.00631 11.3581 7.48711 15 7.48711C18.5778 7.48711 22.0114 7.99025 24.6654 8.91089C26.2193 9.44615 27.5276 10.142 28.4567 10.9127C29.466 11.7585 30 12.6844 30 13.589C30 15.4357 27.8266 17.3037 24.3236 18.4652C21.8459 19.2895 18.5351 19.7445 15.0053 19.7445ZM15.0053 8.77173C11.5504 8.77173 8.13279 9.27487 5.63368 10.1473C2.63261 11.1964 1.28693 12.6309 1.28693 13.589C1.28693 14.5846 2.73407 16.1529 5.90602 17.2395C8.23425 18.037 11.3848 18.4599 15.0053 18.4599C18.4016 18.4599 21.5682 18.0316 23.9231 17.2448C27.2179 16.1475 28.7237 14.5792 28.7237 13.589C28.7237 13.0805 28.3393 12.481 27.6397 11.8976C26.8334 11.2232 25.6586 10.6077 24.2542 10.1206C21.7284 9.25346 18.4443 8.77173 15.0053 8.77173Z" fill="#00D8FF"/>
</svg>
