<svg width="30" height="29" viewBox="0 0 30 29" fill="none" xmlns="http://www.w3.org/2000/svg">
<path d="M20.7868 20.2691C21.8939 20.1545 22.7338 19.2001 22.6956 18.0547C22.6575 16.9094 21.703 15.9932 20.5577 15.9932H20.4814C19.2978 16.0314 18.3817 17.0239 18.4199 18.2074C18.4581 18.7801 18.6871 19.2764 19.0307 19.62C17.7327 22.178 15.7475 24.0486 12.7698 25.6139C10.7464 26.6829 8.64679 27.0647 6.54715 26.7975C4.82918 26.5684 3.49301 25.8049 2.65301 24.5449C1.43144 22.6742 1.31695 20.6508 2.34773 18.6274C3.07312 17.1766 4.21828 16.1076 4.94367 15.5732C4.79097 15.0769 4.56187 14.237 4.44738 13.6262C-1.0882 17.6348 -0.515509 23.056 1.16426 25.6139C2.42402 27.5229 4.98187 28.7064 7.80691 28.7064C8.57039 28.7064 9.33386 28.63 10.0975 28.4392C14.9841 27.4847 18.6872 24.5831 20.7868 20.2691ZM27.5059 15.5351C24.6044 12.1372 20.3287 10.2666 15.4421 10.2666H14.8314C14.4878 9.57937 13.7624 9.12116 12.9607 9.12116H12.8843C11.7009 9.15937 10.7848 10.1519 10.8228 11.3355C10.8611 12.4808 11.8154 13.3971 12.9607 13.3971H13.037C13.8769 13.3589 14.6023 12.8244 14.9077 12.099H15.5948C18.4963 12.099 21.2449 12.9389 23.7265 14.5806C25.6352 15.8405 27.0096 17.4821 27.7731 19.4673C28.4221 21.0708 28.3839 22.636 27.6967 23.9723C26.6278 25.9957 24.8335 27.1029 22.4666 27.1029C20.9395 27.1029 19.4889 26.6447 18.7253 26.3011C18.3054 26.6829 17.5418 27.2937 17.0073 27.6756C18.649 28.4391 20.3287 28.8591 21.9321 28.8591C25.597 28.8591 28.3076 26.8356 29.3384 24.8122C30.4454 22.5978 30.369 18.7801 27.5059 15.5351ZM8.1123 20.918C8.15051 22.0634 9.10488 22.9795 10.2502 22.9795H10.3266C11.51 22.9414 12.4262 21.9487 12.388 20.7653C12.3499 19.6199 11.3954 18.7037 10.2502 18.7037H10.1739C10.0975 18.7037 9.98285 18.7037 9.90668 18.7418C8.3414 16.1457 7.69242 13.3207 7.92152 10.2664C8.0741 7.97577 8.83769 5.9905 10.1739 4.34882C11.2809 2.93624 13.4188 2.24906 14.8696 2.21097C18.9162 2.13456 20.634 7.17398 20.7486 9.19745C21.2449 9.31195 22.0848 9.57925 22.6575 9.77015C22.1993 3.58546 18.3817 0.37851 14.7169 0.37851C11.2809 0.37851 8.1123 2.86007 6.85242 6.52511C5.09636 11.4118 6.24164 16.1076 8.37949 19.8109C8.18871 20.0781 8.0741 20.498 8.1123 20.918Z" fill="#764ABC"/>
</svg>
